<svg viewBox="0 0 37 24" fill="none" xmlns="http://www.w3.org/2000/svg">
    <path fill-rule="evenodd" clip-rule="evenodd"
        d="M33.377 1.145c-1.165.055-2.92.51-5.264 1.616l-.005.002-4 1.84a.57.57 0 01-.31.049L7.612 2.62a.405.405 0 00-.119.005l-1.769.865 11.602 4.18a.57.57 0 01.113 1.015l-6.647 4.242a.57.57 0 01-.44.073l-5.31-1.284H5.04a.413.413 0 00-.237.01l-.003.001-3.234 1.594 6.227 2.53a.57.57 0 01.298.278l1.814 3.738 1.764-.113 1.006-3.519a.569.569 0 01.225-.313l7.362-5.061a.57.57 0 01.844.239L25.6 21.244a.253.253 0 00.085.01h.004l3.793-2.065-.019-.355-.071-1.383a10085.513 10085.513 0 01-.424-8.32l-.095-1.885.569-.03-.57.03a.57.57 0 01.27-.514c.372-.23 1.927-1.313 3.35-2.505.713-.597 1.372-1.204 1.83-1.733.23-.265.393-.493.488-.674.087-.166.086-.234.087-.234l.002.006c-.017-.078-.075-.19-.301-.292-.24-.108-.636-.183-1.22-.155zm1.522.45v-.003.002zm-4.872 5.92l.079 1.559a27540.66 27540.66 0 00.515 10.092l.006.105v.012c.05.37-.164.669-.435.816l-3.964 2.157-.002.002c-.278.153-.597.158-.855.103l-.003-.001c-.256-.057-.566-.208-.737-.501a.595.595 0 01-.03-.057l-4.259-9.614-6.628 4.557-1.06 3.708a.57.57 0 01-.51.411l-2.547.164a.57.57 0 01-.55-.32l-1.886-3.885-6.523-2.65c-.224-.088-.592-.31-.633-.75-.049-.451.276-.74.53-.864h.002l3.757-1.852h.002a1.532 1.532 0 011.01-.1v.001l5.077 1.228 5.466-3.488-11.02-3.97c-.251-.074-.59-.252-.711-.617a.753.753 0 01.068-.628.93.93 0 01.39-.35l2.413-1.18c.247-.122.525-.14.754-.114h.006l16.03 2.012 3.85-1.771C30.041.59 31.95.072 33.324.007c.685-.032 1.278.047 1.74.254.476.214.837.58.947 1.089"
        fill="#F5F50D" />
    <path fill-rule="evenodd" clip-rule="evenodd"
        d="M24.362 3.809a.57.57 0 01-.219.775L19.961 6.92a.57.57 0 11-.556-.994l4.182-2.338a.57.57 0 01.775.22zM9.93 12.327a.57.57 0 01.68-.432l1.894.424a.57.57 0 11-.248 1.111l-1.895-.423a.57.57 0 01-.432-.68zM22.143 21.74a.57.57 0 01-.205.78l-2.405 1.402a.57.57 0 01-.574-.983l2.405-1.404a.57.57 0 01.779.205zM4.73 5.872a.57.57 0 01-.204.78l-1.699.992a.57.57 0 01-.575-.983l1.7-.993a.57.57 0 01.779.204zM27.697 5.862a.57.57 0 01-.136.794l-.11.078a.57.57 0 11-.658-.93l.11-.077a.57.57 0 01.794.135zM25.179 7.347a.57.57 0 01-.15.791l-.115.078a.57.57 0 01-.64-.942l.114-.077a.57.57 0 01.79.15zM22.655 8.823a.57.57 0 01-.15.791l-.115.078a.57.57 0 11-.64-.942l.114-.077a.57.57 0 01.791.15z"
        fill="#F5F50D" />
</svg>