<svg viewBox="0 0 29 24" fill="none" xmlns="http://www.w3.org/2000/svg">
    <path
        d="M7.888 23.829a2.564 2.564 0 100-5.128 2.564 2.564 0 000 5.128zM18.62 24c1.43 0 2.59-1.186 2.59-2.65 0-1.463-1.16-2.65-2.59-2.65s-2.59 1.187-2.59 2.65c0 1.464 1.16 2.65 2.59 2.65z"
        fill="#F5F50D" />
    <path fill-rule="evenodd" clip-rule="evenodd"
        d="M26.17 0c-1.278 0-2.313 1.069-2.313 2.387l-.307 2.396H.965C.398 4.783 0 5.296 0 5.95c0 .248.018.482.128.67l2.161 9.73c.072.307.3.534.59.659.142.092.305.143.474.148h18.671l-.31 1.95H4.546c-.569 0-.894.1-.894.755s.325.846.894.846l19.252.001 2.07-15.965c.101.013.198.032.303.032 1.276 0 2.31-1.07 2.31-2.387 0-1.32-1.036-2.389-2.31-2.389zm-3.457 10.299h-3.115v-3.82h3.707l-.592 3.82zm-18.87 5.147l-.551-3.63h3.893v3.63H3.843zM14.19 6.48h3.652v3.653H14.19V6.48zm-1.674 3.708H8.81V6.452h3.707v3.736zm-9.272-.018l-.56-3.686h4.481v3.686H3.244zm5.593 1.663h3.68v3.707h-3.68v-3.707zm5.353-.029h3.679v3.736h-3.68v-3.736zm5.353 3.708V11.86h3.4l-.515 3.652h-2.886z"
        fill="#F5F50D" />
</svg>