<svg viewBox="0 0 348 362" fill="none" xmlns="http://www.w3.org/2000/svg">
    <path
        d="M3.466 5.932a2.966 2.966 0 100-5.932 2.966 2.966 0 000 5.932zM18.295 5.932a2.966 2.966 0 100-5.932 2.966 2.966 0 000 5.932zM33.124 5.932a2.966 2.966 0 100-5.932 2.966 2.966 0 000 5.932zM47.953 5.932a2.966 2.966 0 100-5.932 2.966 2.966 0 000 5.932zM62.782 5.932a2.966 2.966 0 100-5.932 2.966 2.966 0 000 5.932zM77.611 5.932a2.966 2.966 0 100-5.932 2.966 2.966 0 000 5.932zM92.44 5.932a2.966 2.966 0 100-5.932 2.966 2.966 0 000 5.932zM107.269 5.932a2.966 2.966 0 100-5.932 2.966 2.966 0 000 5.932zM122.098 5.932a2.966 2.966 0 100-5.932 2.966 2.966 0 000 5.932zM136.927 5.932a2.966 2.966 0 100-5.932 2.966 2.966 0 000 5.932zM151.756 5.932a2.966 2.966 0 100-5.932 2.966 2.966 0 000 5.932zM166.585 5.932a2.966 2.966 0 100-5.932 2.966 2.966 0 000 5.932zM181.414 5.932a2.966 2.966 0 100-5.932 2.966 2.966 0 000 5.932zM196.244 5.932a2.965 2.965 0 100-5.93 2.965 2.965 0 000 5.93zM211.073 5.932a2.965 2.965 0 100-5.93 2.965 2.965 0 000 5.93zM225.902 5.932a2.966 2.966 0 100-5.932 2.966 2.966 0 000 5.932zM240.731 5.932a2.966 2.966 0 100-5.932 2.966 2.966 0 000 5.932zM255.56 5.932a2.966 2.966 0 100-5.932 2.966 2.966 0 000 5.932zM270.389 5.932a2.966 2.966 0 100-5.932 2.966 2.966 0 000 5.932zM285.218 5.932a2.966 2.966 0 100-5.932 2.966 2.966 0 000 5.932zM300.047 5.932a2.966 2.966 0 100-5.932 2.966 2.966 0 000 5.932zM314.876 5.932a2.966 2.966 0 100-5.932 2.966 2.966 0 000 5.932zM329.705 5.932a2.966 2.966 0 100-5.932 2.966 2.966 0 000 5.932zM344.534 5.932a2.966 2.966 0 100-5.932 2.966 2.966 0 000 5.932zM3.466 20.76a2.966 2.966 0 100-5.93 2.966 2.966 0 000 5.93zM18.295 20.76a2.966 2.966 0 100-5.93 2.966 2.966 0 000 5.93zM33.124 20.76a2.966 2.966 0 100-5.931 2.966 2.966 0 000 5.932zM47.953 20.76a2.966 2.966 0 100-5.93 2.966 2.966 0 000 5.93zM62.782 20.76a2.966 2.966 0 100-5.93 2.966 2.966 0 000 5.93zM77.611 20.76a2.966 2.966 0 100-5.93 2.966 2.966 0 000 5.93zM92.44 20.76a2.966 2.966 0 100-5.93 2.966 2.966 0 000 5.93zM107.269 20.76a2.966 2.966 0 100-5.931 2.966 2.966 0 000 5.932zM122.098 20.76a2.966 2.966 0 100-5.931 2.966 2.966 0 000 5.932zM136.927 20.76a2.966 2.966 0 100-5.931 2.966 2.966 0 000 5.932zM151.756 20.76a2.966 2.966 0 100-5.931 2.966 2.966 0 000 5.932zM166.585 20.76a2.966 2.966 0 100-5.931 2.966 2.966 0 000 5.932zM181.414 20.76a2.966 2.966 0 100-5.931 2.966 2.966 0 000 5.932zM196.244 20.76a2.965 2.965 0 100-5.93 2.965 2.965 0 000 5.93zM211.073 20.76a2.965 2.965 0 100-5.93 2.965 2.965 0 000 5.93zM225.902 20.76a2.966 2.966 0 100-5.931 2.966 2.966 0 000 5.932zM240.731 20.76a2.966 2.966 0 100-5.931 2.966 2.966 0 000 5.932zM255.56 20.76a2.966 2.966 0 100-5.931 2.966 2.966 0 000 5.932zM270.389 20.76a2.966 2.966 0 100-5.931 2.966 2.966 0 000 5.932zM285.218 20.76a2.966 2.966 0 100-5.931 2.966 2.966 0 000 5.932zM300.047 20.76a2.966 2.966 0 100-5.931 2.966 2.966 0 000 5.932zM314.876 20.76a2.966 2.966 0 100-5.931 2.966 2.966 0 000 5.932zM329.705 20.76a2.966 2.966 0 100-5.931 2.966 2.966 0 000 5.932zM344.534 20.76a2.966 2.966 0 100-5.931 2.966 2.966 0 000 5.932zM3.466 35.59a2.966 2.966 0 100-5.932 2.966 2.966 0 000 5.932zM18.295 35.59a2.966 2.966 0 100-5.932 2.966 2.966 0 000 5.932zM33.124 35.59a2.966 2.966 0 100-5.932 2.966 2.966 0 000 5.932zM47.953 35.59a2.966 2.966 0 100-5.932 2.966 2.966 0 000 5.932zM62.782 35.59a2.966 2.966 0 100-5.932 2.966 2.966 0 000 5.932zM77.611 35.59a2.966 2.966 0 100-5.932 2.966 2.966 0 000 5.932zM92.44 35.59a2.966 2.966 0 100-5.932 2.966 2.966 0 000 5.932zM107.269 35.59a2.966 2.966 0 100-5.932 2.966 2.966 0 000 5.932zM122.098 35.59a2.966 2.966 0 100-5.932 2.966 2.966 0 000 5.932zM136.927 35.59a2.966 2.966 0 100-5.932 2.966 2.966 0 000 5.932zM151.756 35.59a2.966 2.966 0 100-5.932 2.966 2.966 0 000 5.932zM166.585 35.59a2.966 2.966 0 100-5.932 2.966 2.966 0 000 5.932zM181.414 35.59a2.966 2.966 0 100-5.932 2.966 2.966 0 000 5.932zM196.244 35.59a2.965 2.965 0 100-5.93 2.965 2.965 0 000 5.93zM211.073 35.59a2.965 2.965 0 100-5.93 2.965 2.965 0 000 5.93zM225.902 35.59a2.966 2.966 0 100-5.932 2.966 2.966 0 000 5.932zM240.731 35.59a2.966 2.966 0 100-5.932 2.966 2.966 0 000 5.932zM255.56 35.59a2.966 2.966 0 100-5.932 2.966 2.966 0 000 5.932zM270.389 35.59a2.966 2.966 0 100-5.932 2.966 2.966 0 000 5.932zM285.218 35.59a2.966 2.966 0 100-5.932 2.966 2.966 0 000 5.932zM300.047 35.59a2.966 2.966 0 100-5.932 2.966 2.966 0 000 5.932zM314.876 35.59a2.966 2.966 0 100-5.932 2.966 2.966 0 000 5.932zM329.705 35.59a2.966 2.966 0 100-5.932 2.966 2.966 0 000 5.932zM344.534 35.59a2.966 2.966 0 100-5.932 2.966 2.966 0 000 5.932zM3.466 50.419a2.966 2.966 0 100-5.932 2.966 2.966 0 000 5.932zM18.295 50.419a2.966 2.966 0 100-5.932 2.966 2.966 0 000 5.932zM33.124 50.419a2.966 2.966 0 100-5.932 2.966 2.966 0 000 5.932zM47.953 50.419a2.966 2.966 0 100-5.932 2.966 2.966 0 000 5.932zM62.782 50.419a2.966 2.966 0 100-5.932 2.966 2.966 0 000 5.932zM77.611 50.419a2.966 2.966 0 100-5.932 2.966 2.966 0 000 5.932zM92.44 50.419a2.966 2.966 0 100-5.932 2.966 2.966 0 000 5.932zM107.269 50.419a2.966 2.966 0 100-5.932 2.966 2.966 0 000 5.932zM122.098 50.419a2.966 2.966 0 100-5.932 2.966 2.966 0 000 5.932zM136.927 50.419a2.966 2.966 0 100-5.932 2.966 2.966 0 000 5.932zM151.756 50.419a2.966 2.966 0 100-5.932 2.966 2.966 0 000 5.932zM166.585 50.419a2.966 2.966 0 100-5.932 2.966 2.966 0 000 5.932zM181.414 50.419a2.966 2.966 0 100-5.932 2.966 2.966 0 000 5.932zM196.244 50.419a2.965 2.965 0 100-5.93 2.965 2.965 0 000 5.93zM211.073 50.419a2.965 2.965 0 100-5.93 2.965 2.965 0 000 5.93zM225.902 50.419a2.966 2.966 0 100-5.932 2.966 2.966 0 000 5.932zM240.731 50.419a2.966 2.966 0 100-5.932 2.966 2.966 0 000 5.932zM255.56 50.419a2.966 2.966 0 100-5.932 2.966 2.966 0 000 5.932zM270.389 50.419a2.966 2.966 0 100-5.932 2.966 2.966 0 000 5.932zM285.218 50.419a2.966 2.966 0 100-5.932 2.966 2.966 0 000 5.932zM300.047 50.419a2.966 2.966 0 100-5.932 2.966 2.966 0 000 5.932zM314.876 50.419a2.966 2.966 0 100-5.932 2.966 2.966 0 000 5.932zM329.705 50.419a2.966 2.966 0 100-5.932 2.966 2.966 0 000 5.932zM344.534 50.419a2.966 2.966 0 100-5.932 2.966 2.966 0 000 5.932zM3.466 65.248a2.966 2.966 0 100-5.932 2.966 2.966 0 000 5.932zM18.295 65.248a2.966 2.966 0 100-5.932 2.966 2.966 0 000 5.932zM33.124 65.248a2.966 2.966 0 100-5.932 2.966 2.966 0 000 5.932zM47.953 65.248a2.966 2.966 0 100-5.932 2.966 2.966 0 000 5.932zM62.782 65.248a2.966 2.966 0 100-5.932 2.966 2.966 0 000 5.932zM77.611 65.248a2.966 2.966 0 100-5.932 2.966 2.966 0 000 5.932zM92.44 65.248a2.966 2.966 0 100-5.932 2.966 2.966 0 000 5.932zM107.269 65.248a2.966 2.966 0 100-5.932 2.966 2.966 0 000 5.932zM122.098 65.248a2.966 2.966 0 100-5.932 2.966 2.966 0 000 5.932zM136.927 65.248a2.966 2.966 0 100-5.932 2.966 2.966 0 000 5.932zM151.756 65.248a2.966 2.966 0 100-5.932 2.966 2.966 0 000 5.932zM166.585 65.248a2.966 2.966 0 100-5.932 2.966 2.966 0 000 5.932zM181.414 65.248a2.966 2.966 0 100-5.932 2.966 2.966 0 000 5.932zM196.244 65.248a2.965 2.965 0 100-5.93 2.965 2.965 0 000 5.93zM211.073 65.248a2.965 2.965 0 100-5.93 2.965 2.965 0 000 5.93zM225.902 65.248a2.966 2.966 0 100-5.932 2.966 2.966 0 000 5.932zM240.731 65.248a2.966 2.966 0 100-5.932 2.966 2.966 0 000 5.932zM255.56 65.248a2.966 2.966 0 100-5.932 2.966 2.966 0 000 5.932zM270.389 65.248a2.966 2.966 0 100-5.932 2.966 2.966 0 000 5.932zM285.218 65.248a2.966 2.966 0 100-5.932 2.966 2.966 0 000 5.932zM300.047 65.248a2.966 2.966 0 100-5.932 2.966 2.966 0 000 5.932zM314.876 65.248a2.966 2.966 0 100-5.932 2.966 2.966 0 000 5.932zM329.705 65.248a2.966 2.966 0 100-5.932 2.966 2.966 0 000 5.932zM344.534 65.248a2.966 2.966 0 100-5.932 2.966 2.966 0 000 5.932zM3.466 80.077a2.966 2.966 0 100-5.932 2.966 2.966 0 000 5.932zM18.295 80.077a2.966 2.966 0 100-5.932 2.966 2.966 0 000 5.932zM33.124 80.077a2.966 2.966 0 100-5.932 2.966 2.966 0 000 5.932zM47.953 80.077a2.966 2.966 0 100-5.932 2.966 2.966 0 000 5.932zM62.782 80.077a2.966 2.966 0 100-5.932 2.966 2.966 0 000 5.932zM77.611 80.077a2.966 2.966 0 100-5.932 2.966 2.966 0 000 5.932zM92.44 80.077a2.966 2.966 0 100-5.932 2.966 2.966 0 000 5.932zM107.269 80.077a2.966 2.966 0 100-5.932 2.966 2.966 0 000 5.932zM122.098 80.077a2.966 2.966 0 100-5.932 2.966 2.966 0 000 5.932zM136.927 80.077a2.966 2.966 0 100-5.932 2.966 2.966 0 000 5.932zM151.756 80.077a2.966 2.966 0 100-5.932 2.966 2.966 0 000 5.932zM166.585 80.077a2.966 2.966 0 100-5.932 2.966 2.966 0 000 5.932zM181.414 80.077a2.966 2.966 0 100-5.932 2.966 2.966 0 000 5.932zM196.244 80.077a2.965 2.965 0 100-5.93 2.965 2.965 0 000 5.93zM211.073 80.077a2.965 2.965 0 100-5.93 2.965 2.965 0 000 5.93zM225.902 80.077a2.966 2.966 0 100-5.932 2.966 2.966 0 000 5.932zM240.731 80.077a2.966 2.966 0 100-5.932 2.966 2.966 0 000 5.932zM255.56 80.077a2.966 2.966 0 100-5.932 2.966 2.966 0 000 5.932zM270.389 80.077a2.966 2.966 0 100-5.932 2.966 2.966 0 000 5.932zM285.218 80.077a2.966 2.966 0 100-5.932 2.966 2.966 0 000 5.932zM300.047 80.077a2.966 2.966 0 100-5.932 2.966 2.966 0 000 5.932zM314.876 80.077a2.966 2.966 0 100-5.932 2.966 2.966 0 000 5.932zM329.705 80.077a2.966 2.966 0 100-5.932 2.966 2.966 0 000 5.932zM344.534 80.077a2.966 2.966 0 100-5.932 2.966 2.966 0 000 5.932zM3.466 94.906a2.966 2.966 0 100-5.932 2.966 2.966 0 000 5.932zM18.295 94.906a2.966 2.966 0 100-5.932 2.966 2.966 0 000 5.932zM33.124 94.906a2.966 2.966 0 100-5.932 2.966 2.966 0 000 5.932zM47.953 94.906a2.966 2.966 0 100-5.932 2.966 2.966 0 000 5.932zM62.782 94.906a2.966 2.966 0 100-5.932 2.966 2.966 0 000 5.932zM77.611 94.906a2.966 2.966 0 100-5.932 2.966 2.966 0 000 5.932zM92.44 94.906a2.966 2.966 0 100-5.932 2.966 2.966 0 000 5.932zM107.269 94.906a2.966 2.966 0 100-5.932 2.966 2.966 0 000 5.932zM122.098 94.906a2.966 2.966 0 100-5.932 2.966 2.966 0 000 5.932zM136.927 94.906a2.966 2.966 0 100-5.932 2.966 2.966 0 000 5.932zM151.756 94.906a2.966 2.966 0 100-5.932 2.966 2.966 0 000 5.932zM166.585 94.906a2.966 2.966 0 100-5.932 2.966 2.966 0 000 5.932zM181.414 94.906a2.966 2.966 0 100-5.932 2.966 2.966 0 000 5.932zM196.244 94.906a2.965 2.965 0 100-5.93 2.965 2.965 0 000 5.93zM211.073 94.906a2.965 2.965 0 100-5.93 2.965 2.965 0 000 5.93zM225.902 94.906a2.966 2.966 0 100-5.932 2.966 2.966 0 000 5.932zM240.731 94.906a2.966 2.966 0 100-5.932 2.966 2.966 0 000 5.932zM255.56 94.906a2.966 2.966 0 100-5.932 2.966 2.966 0 000 5.932zM270.389 94.906a2.966 2.966 0 100-5.932 2.966 2.966 0 000 5.932zM285.218 94.906a2.966 2.966 0 100-5.932 2.966 2.966 0 000 5.932zM300.047 94.906a2.966 2.966 0 100-5.932 2.966 2.966 0 000 5.932zM314.876 94.906a2.966 2.966 0 100-5.932 2.966 2.966 0 000 5.932zM329.705 94.906a2.966 2.966 0 100-5.932 2.966 2.966 0 000 5.932zM344.534 94.906a2.966 2.966 0 100-5.932 2.966 2.966 0 000 5.932zM3.466 109.735a2.966 2.966 0 100-5.932 2.966 2.966 0 000 5.932zM18.295 109.735a2.966 2.966 0 100-5.932 2.966 2.966 0 000 5.932zM33.124 109.735a2.966 2.966 0 100-5.932 2.966 2.966 0 000 5.932zM47.953 109.735a2.966 2.966 0 100-5.932 2.966 2.966 0 000 5.932zM62.782 109.735a2.966 2.966 0 100-5.932 2.966 2.966 0 000 5.932zM77.611 109.735a2.966 2.966 0 100-5.932 2.966 2.966 0 000 5.932zM92.44 109.735a2.966 2.966 0 100-5.932 2.966 2.966 0 000 5.932zM107.269 109.735a2.966 2.966 0 100-5.932 2.966 2.966 0 000 5.932zM122.098 109.735a2.966 2.966 0 100-5.932 2.966 2.966 0 000 5.932zM136.927 109.735a2.966 2.966 0 100-5.932 2.966 2.966 0 000 5.932zM151.756 109.735a2.966 2.966 0 100-5.932 2.966 2.966 0 000 5.932zM166.585 109.735a2.966 2.966 0 100-5.932 2.966 2.966 0 000 5.932zM181.414 109.735a2.966 2.966 0 100-5.932 2.966 2.966 0 000 5.932zM196.244 109.735a2.965 2.965 0 100-5.93 2.965 2.965 0 000 5.93zM211.073 109.735a2.965 2.965 0 100-5.93 2.965 2.965 0 000 5.93zM225.902 109.735a2.966 2.966 0 100-5.932 2.966 2.966 0 000 5.932zM240.731 109.735a2.966 2.966 0 100-5.932 2.966 2.966 0 000 5.932zM255.56 109.735a2.966 2.966 0 100-5.932 2.966 2.966 0 000 5.932zM270.389 109.735a2.966 2.966 0 100-5.932 2.966 2.966 0 000 5.932zM285.218 109.735a2.966 2.966 0 100-5.932 2.966 2.966 0 000 5.932zM300.047 109.735a2.966 2.966 0 100-5.932 2.966 2.966 0 000 5.932zM314.876 109.735a2.966 2.966 0 100-5.932 2.966 2.966 0 000 5.932zM329.705 109.735a2.966 2.966 0 100-5.932 2.966 2.966 0 000 5.932zM344.534 109.735a2.966 2.966 0 100-5.932 2.966 2.966 0 000 5.932zM3.466 124.564a2.966 2.966 0 100-5.932 2.966 2.966 0 000 5.932zM18.295 124.564a2.966 2.966 0 100-5.932 2.966 2.966 0 000 5.932zM33.124 124.564a2.966 2.966 0 100-5.932 2.966 2.966 0 000 5.932zM47.953 124.564a2.966 2.966 0 100-5.932 2.966 2.966 0 000 5.932zM62.782 124.564a2.966 2.966 0 100-5.932 2.966 2.966 0 000 5.932zM77.611 124.564a2.966 2.966 0 100-5.932 2.966 2.966 0 000 5.932zM92.44 124.564a2.966 2.966 0 100-5.932 2.966 2.966 0 000 5.932zM107.269 124.564a2.966 2.966 0 100-5.932 2.966 2.966 0 000 5.932zM122.098 124.564a2.966 2.966 0 100-5.932 2.966 2.966 0 000 5.932zM136.927 124.564a2.966 2.966 0 100-5.932 2.966 2.966 0 000 5.932zM151.756 124.564a2.966 2.966 0 100-5.932 2.966 2.966 0 000 5.932zM166.585 124.564a2.966 2.966 0 100-5.932 2.966 2.966 0 000 5.932zM181.414 124.564a2.966 2.966 0 100-5.932 2.966 2.966 0 000 5.932zM196.244 124.564a2.965 2.965 0 100-5.93 2.965 2.965 0 000 5.93zM211.073 124.564a2.965 2.965 0 100-5.93 2.965 2.965 0 000 5.93zM225.902 124.564a2.966 2.966 0 100-5.932 2.966 2.966 0 000 5.932zM240.731 124.564a2.966 2.966 0 100-5.932 2.966 2.966 0 000 5.932zM255.56 124.564a2.966 2.966 0 100-5.932 2.966 2.966 0 000 5.932zM270.389 124.564a2.966 2.966 0 100-5.932 2.966 2.966 0 000 5.932zM285.218 124.564a2.966 2.966 0 100-5.932 2.966 2.966 0 000 5.932zM300.047 124.564a2.966 2.966 0 100-5.932 2.966 2.966 0 000 5.932zM314.876 124.564a2.966 2.966 0 100-5.932 2.966 2.966 0 000 5.932zM329.705 124.564a2.966 2.966 0 100-5.932 2.966 2.966 0 000 5.932zM344.534 124.564a2.966 2.966 0 100-5.932 2.966 2.966 0 000 5.932zM3.466 139.393a2.966 2.966 0 100-5.932 2.966 2.966 0 000 5.932zM18.295 139.393a2.966 2.966 0 100-5.932 2.966 2.966 0 000 5.932zM33.124 139.393a2.966 2.966 0 100-5.932 2.966 2.966 0 000 5.932zM47.953 139.393a2.966 2.966 0 100-5.932 2.966 2.966 0 000 5.932zM62.782 139.393a2.966 2.966 0 100-5.932 2.966 2.966 0 000 5.932zM77.611 139.393a2.966 2.966 0 100-5.932 2.966 2.966 0 000 5.932zM92.44 139.393a2.966 2.966 0 100-5.932 2.966 2.966 0 000 5.932zM107.269 139.393a2.966 2.966 0 100-5.932 2.966 2.966 0 000 5.932zM122.098 139.393a2.966 2.966 0 100-5.932 2.966 2.966 0 000 5.932zM136.927 139.393a2.966 2.966 0 100-5.932 2.966 2.966 0 000 5.932zM151.756 139.393a2.966 2.966 0 100-5.932 2.966 2.966 0 000 5.932zM166.585 139.393a2.966 2.966 0 100-5.932 2.966 2.966 0 000 5.932zM181.414 139.393a2.966 2.966 0 100-5.932 2.966 2.966 0 000 5.932zM196.244 139.393a2.965 2.965 0 100-5.93 2.965 2.965 0 000 5.93zM211.073 139.393a2.965 2.965 0 100-5.93 2.965 2.965 0 000 5.93zM225.902 139.393a2.966 2.966 0 100-5.932 2.966 2.966 0 000 5.932zM240.731 139.393a2.966 2.966 0 100-5.932 2.966 2.966 0 000 5.932zM255.56 139.393a2.966 2.966 0 100-5.932 2.966 2.966 0 000 5.932zM270.389 139.393a2.966 2.966 0 100-5.932 2.966 2.966 0 000 5.932zM285.218 139.393a2.966 2.966 0 100-5.932 2.966 2.966 0 000 5.932zM300.047 139.393a2.966 2.966 0 100-5.932 2.966 2.966 0 000 5.932zM314.876 139.393a2.966 2.966 0 100-5.932 2.966 2.966 0 000 5.932zM329.705 139.393a2.966 2.966 0 100-5.932 2.966 2.966 0 000 5.932zM344.534 139.393a2.966 2.966 0 100-5.932 2.966 2.966 0 000 5.932zM3.466 154.222a2.966 2.966 0 100-5.932 2.966 2.966 0 000 5.932zM18.295 154.222a2.966 2.966 0 100-5.932 2.966 2.966 0 000 5.932zM33.124 154.222a2.966 2.966 0 100-5.932 2.966 2.966 0 000 5.932zM47.953 154.222a2.966 2.966 0 100-5.932 2.966 2.966 0 000 5.932zM62.782 154.222a2.966 2.966 0 100-5.932 2.966 2.966 0 000 5.932zM77.611 154.222a2.966 2.966 0 100-5.932 2.966 2.966 0 000 5.932zM92.44 154.222a2.966 2.966 0 100-5.932 2.966 2.966 0 000 5.932zM107.269 154.222a2.966 2.966 0 100-5.932 2.966 2.966 0 000 5.932zM122.098 154.222a2.966 2.966 0 100-5.932 2.966 2.966 0 000 5.932zM136.927 154.222a2.966 2.966 0 100-5.932 2.966 2.966 0 000 5.932zM151.756 154.222a2.966 2.966 0 100-5.932 2.966 2.966 0 000 5.932zM166.585 154.222a2.966 2.966 0 100-5.932 2.966 2.966 0 000 5.932zM181.414 154.222a2.966 2.966 0 100-5.932 2.966 2.966 0 000 5.932zM196.244 154.222a2.965 2.965 0 100-5.93 2.965 2.965 0 000 5.93zM211.073 154.222a2.965 2.965 0 100-5.93 2.965 2.965 0 000 5.93zM225.902 154.222a2.966 2.966 0 100-5.932 2.966 2.966 0 000 5.932zM240.731 154.222a2.966 2.966 0 100-5.932 2.966 2.966 0 000 5.932zM255.56 154.222a2.966 2.966 0 100-5.932 2.966 2.966 0 000 5.932zM270.389 154.222a2.966 2.966 0 100-5.932 2.966 2.966 0 000 5.932zM285.218 154.222a2.966 2.966 0 100-5.932 2.966 2.966 0 000 5.932zM300.047 154.222a2.966 2.966 0 100-5.932 2.966 2.966 0 000 5.932zM314.876 154.222a2.966 2.966 0 100-5.932 2.966 2.966 0 000 5.932zM329.705 154.222a2.966 2.966 0 100-5.932 2.966 2.966 0 000 5.932zM344.534 154.222a2.966 2.966 0 100-5.932 2.966 2.966 0 000 5.932zM3.466 169.051a2.966 2.966 0 100-5.932 2.966 2.966 0 000 5.932zM18.295 169.051a2.966 2.966 0 100-5.932 2.966 2.966 0 000 5.932zM33.124 169.051a2.966 2.966 0 100-5.932 2.966 2.966 0 000 5.932zM47.953 169.051a2.966 2.966 0 100-5.932 2.966 2.966 0 000 5.932zM62.782 169.051a2.966 2.966 0 100-5.932 2.966 2.966 0 000 5.932zM77.611 169.051a2.966 2.966 0 100-5.932 2.966 2.966 0 000 5.932zM92.44 169.051a2.966 2.966 0 100-5.932 2.966 2.966 0 000 5.932zM107.269 169.051a2.966 2.966 0 100-5.932 2.966 2.966 0 000 5.932zM122.098 169.051a2.966 2.966 0 100-5.932 2.966 2.966 0 000 5.932zM136.927 169.051a2.966 2.966 0 100-5.932 2.966 2.966 0 000 5.932zM151.756 169.051a2.966 2.966 0 100-5.932 2.966 2.966 0 000 5.932zM166.585 169.051a2.966 2.966 0 100-5.932 2.966 2.966 0 000 5.932zM181.414 169.051a2.966 2.966 0 100-5.932 2.966 2.966 0 000 5.932zM196.244 169.051a2.965 2.965 0 100-5.93 2.965 2.965 0 000 5.93zM211.073 169.051a2.965 2.965 0 100-5.93 2.965 2.965 0 000 5.93zM225.902 169.051a2.966 2.966 0 100-5.932 2.966 2.966 0 000 5.932zM240.731 169.051a2.966 2.966 0 100-5.932 2.966 2.966 0 000 5.932zM255.56 169.051a2.966 2.966 0 100-5.932 2.966 2.966 0 000 5.932zM270.389 169.051a2.966 2.966 0 100-5.932 2.966 2.966 0 000 5.932zM285.218 169.051a2.966 2.966 0 100-5.932 2.966 2.966 0 000 5.932zM300.047 169.051a2.966 2.966 0 100-5.932 2.966 2.966 0 000 5.932zM314.876 169.051a2.966 2.966 0 100-5.932 2.966 2.966 0 000 5.932zM329.705 169.051a2.966 2.966 0 100-5.932 2.966 2.966 0 000 5.932zM344.534 169.051a2.966 2.966 0 100-5.932 2.966 2.966 0 000 5.932zM3.466 183.88a2.965 2.965 0 10.001-5.93 2.965 2.965 0 00-.001 5.93zM18.295 183.88a2.965 2.965 0 10.001-5.93 2.965 2.965 0 00-.001 5.93zM33.124 183.88a2.965 2.965 0 10.001-5.93 2.965 2.965 0 00-.001 5.93zM47.953 183.88a2.965 2.965 0 10.001-5.93 2.965 2.965 0 00-.001 5.93zM62.782 183.88a2.965 2.965 0 10.001-5.93 2.965 2.965 0 000 5.93zM77.611 183.88a2.965 2.965 0 10.002-5.93 2.965 2.965 0 00-.002 5.93zM92.44 183.88a2.965 2.965 0 10.002-5.93 2.965 2.965 0 00-.002 5.93zM107.269 183.88a2.965 2.965 0 10.002-5.93 2.965 2.965 0 00-.002 5.93zM122.098 183.88a2.965 2.965 0 10.002-5.93 2.965 2.965 0 00-.002 5.93zM136.927 183.88a2.965 2.965 0 10.002-5.93 2.965 2.965 0 00-.002 5.93zM151.756 183.88a2.965 2.965 0 10.002-5.93 2.965 2.965 0 00-.002 5.93zM166.585 183.88a2.965 2.965 0 10.002-5.93 2.965 2.965 0 00-.002 5.93zM181.414 183.88a2.965 2.965 0 10.002-5.93 2.965 2.965 0 00-.002 5.93zM196.244 183.88a2.965 2.965 0 100-5.932 2.965 2.965 0 000 5.932zM211.073 183.88a2.965 2.965 0 100-5.932 2.965 2.965 0 000 5.932zM225.902 183.88a2.965 2.965 0 10.002-5.93 2.965 2.965 0 00-.002 5.93zM240.731 183.88a2.965 2.965 0 10.002-5.93 2.965 2.965 0 00-.002 5.93zM255.56 183.88a2.965 2.965 0 10.002-5.93 2.965 2.965 0 00-.002 5.93zM270.389 183.88a2.965 2.965 0 10.002-5.93 2.965 2.965 0 00-.002 5.93zM285.218 183.88a2.965 2.965 0 10.002-5.93 2.965 2.965 0 00-.002 5.93zM300.047 183.88a2.965 2.965 0 10.002-5.93 2.965 2.965 0 00-.002 5.93zM314.876 183.88a2.965 2.965 0 10.002-5.93 2.965 2.965 0 00-.002 5.93zM329.705 183.88a2.965 2.965 0 10.002-5.93 2.965 2.965 0 00-.002 5.93zM344.534 183.88a2.965 2.965 0 10.002-5.93 2.965 2.965 0 00-.002 5.93zM3.466 198.709a2.965 2.965 0 10.001-5.93 2.965 2.965 0 00-.001 5.93zM18.295 198.709a2.965 2.965 0 10.001-5.93 2.965 2.965 0 00-.001 5.93zM33.124 198.709a2.965 2.965 0 10.001-5.93 2.965 2.965 0 00-.001 5.93zM47.953 198.709a2.965 2.965 0 10.001-5.93 2.965 2.965 0 00-.001 5.93zM62.782 198.709a2.965 2.965 0 10.001-5.93 2.965 2.965 0 000 5.93zM77.611 198.709a2.965 2.965 0 10.002-5.93 2.965 2.965 0 00-.002 5.93zM92.44 198.709a2.965 2.965 0 10.002-5.93 2.965 2.965 0 00-.002 5.93zM107.269 198.709a2.965 2.965 0 10.002-5.93 2.965 2.965 0 00-.002 5.93zM122.098 198.709a2.965 2.965 0 10.002-5.93 2.965 2.965 0 00-.002 5.93zM136.927 198.709a2.965 2.965 0 10.002-5.93 2.965 2.965 0 00-.002 5.93zM151.756 198.709a2.965 2.965 0 10.002-5.93 2.965 2.965 0 00-.002 5.93zM166.585 198.709a2.965 2.965 0 10.002-5.93 2.965 2.965 0 00-.002 5.93zM181.414 198.709a2.965 2.965 0 10.002-5.93 2.965 2.965 0 00-.002 5.93zM196.244 198.709a2.965 2.965 0 100-5.932 2.965 2.965 0 000 5.932zM211.073 198.709a2.965 2.965 0 100-5.932 2.965 2.965 0 000 5.932zM225.902 198.709a2.965 2.965 0 10.002-5.93 2.965 2.965 0 00-.002 5.93zM240.731 198.709a2.965 2.965 0 10.002-5.93 2.965 2.965 0 00-.002 5.93zM255.56 198.709a2.965 2.965 0 10.002-5.93 2.965 2.965 0 00-.002 5.93zM270.389 198.709a2.965 2.965 0 10.002-5.93 2.965 2.965 0 00-.002 5.93zM285.218 198.709a2.965 2.965 0 10.002-5.93 2.965 2.965 0 00-.002 5.93zM300.047 198.709a2.965 2.965 0 10.002-5.93 2.965 2.965 0 00-.002 5.93zM314.876 198.709a2.965 2.965 0 10.002-5.93 2.965 2.965 0 00-.002 5.93zM329.705 198.709a2.965 2.965 0 10.002-5.93 2.965 2.965 0 00-.002 5.93zM344.534 198.709a2.965 2.965 0 10.002-5.93 2.965 2.965 0 00-.002 5.93zM3.466 213.538a2.966 2.966 0 100-5.931 2.966 2.966 0 000 5.931zM18.295 213.538a2.966 2.966 0 100-5.932 2.966 2.966 0 000 5.932zM33.124 213.538a2.966 2.966 0 100-5.932 2.966 2.966 0 000 5.932zM47.953 213.538a2.966 2.966 0 100-5.931 2.966 2.966 0 000 5.931zM62.782 213.538a2.966 2.966 0 100-5.932 2.966 2.966 0 000 5.932zM77.611 213.538a2.966 2.966 0 100-5.931 2.966 2.966 0 000 5.931zM92.44 213.538a2.966 2.966 0 100-5.932 2.966 2.966 0 000 5.932zM107.269 213.538a2.966 2.966 0 100-5.932 2.966 2.966 0 000 5.932zM122.098 213.538a2.966 2.966 0 100-5.932 2.966 2.966 0 000 5.932zM136.927 213.538a2.966 2.966 0 100-5.932 2.966 2.966 0 000 5.932zM151.756 213.538a2.966 2.966 0 100-5.932 2.966 2.966 0 000 5.932zM166.585 213.538a2.966 2.966 0 100-5.932 2.966 2.966 0 000 5.932zM181.414 213.538a2.966 2.966 0 100-5.932 2.966 2.966 0 000 5.932zM196.244 213.538a2.965 2.965 0 100-5.93 2.965 2.965 0 000 5.93zM211.073 213.538a2.965 2.965 0 100-5.93 2.965 2.965 0 000 5.93zM225.902 213.538a2.966 2.966 0 100-5.932 2.966 2.966 0 000 5.932zM240.731 213.538a2.966 2.966 0 100-5.932 2.966 2.966 0 000 5.932zM255.56 213.538a2.966 2.966 0 100-5.932 2.966 2.966 0 000 5.932zM270.389 213.538a2.966 2.966 0 100-5.932 2.966 2.966 0 000 5.932zM285.218 213.538a2.966 2.966 0 100-5.932 2.966 2.966 0 000 5.932zM300.047 213.538a2.966 2.966 0 100-5.932 2.966 2.966 0 000 5.932zM314.876 213.538a2.966 2.966 0 100-5.932 2.966 2.966 0 000 5.932zM329.705 213.538a2.966 2.966 0 100-5.932 2.966 2.966 0 000 5.932zM344.534 213.538a2.966 2.966 0 100-5.932 2.966 2.966 0 000 5.932zM3.466 228.367a2.965 2.965 0 10.001-5.93 2.965 2.965 0 00-.001 5.93zM18.295 228.367a2.965 2.965 0 10.001-5.93 2.965 2.965 0 00-.001 5.93zM33.124 228.367a2.965 2.965 0 10.001-5.93 2.965 2.965 0 00-.001 5.93zM47.953 228.367a2.965 2.965 0 10.001-5.93 2.965 2.965 0 00-.001 5.93zM62.782 228.367a2.965 2.965 0 10.001-5.93 2.965 2.965 0 000 5.93zM77.611 228.367a2.965 2.965 0 10.002-5.93 2.965 2.965 0 00-.002 5.93zM92.44 228.367a2.965 2.965 0 10.002-5.93 2.965 2.965 0 00-.002 5.93zM107.269 228.367a2.965 2.965 0 10.002-5.93 2.965 2.965 0 00-.002 5.93zM122.098 228.367a2.965 2.965 0 10.002-5.93 2.965 2.965 0 00-.002 5.93zM136.927 228.367a2.965 2.965 0 10.002-5.93 2.965 2.965 0 00-.002 5.93zM151.756 228.367a2.965 2.965 0 10.002-5.93 2.965 2.965 0 00-.002 5.93zM166.585 228.367a2.965 2.965 0 10.002-5.93 2.965 2.965 0 00-.002 5.93zM181.414 228.367a2.965 2.965 0 10.002-5.93 2.965 2.965 0 00-.002 5.93zM196.244 228.367a2.965 2.965 0 100-5.932 2.965 2.965 0 000 5.932zM211.073 228.367a2.965 2.965 0 100-5.932 2.965 2.965 0 000 5.932zM225.902 228.367a2.965 2.965 0 10.002-5.93 2.965 2.965 0 00-.002 5.93zM240.731 228.367a2.965 2.965 0 10.002-5.93 2.965 2.965 0 00-.002 5.93zM255.56 228.367a2.965 2.965 0 10.002-5.93 2.965 2.965 0 00-.002 5.93zM270.389 228.367a2.965 2.965 0 10.002-5.93 2.965 2.965 0 00-.002 5.93zM285.218 228.367a2.965 2.965 0 10.002-5.93 2.965 2.965 0 00-.002 5.93zM300.047 228.367a2.965 2.965 0 10.002-5.93 2.965 2.965 0 00-.002 5.93zM314.876 228.367a2.965 2.965 0 10.002-5.93 2.965 2.965 0 00-.002 5.93zM329.705 228.367a2.965 2.965 0 10.002-5.93 2.965 2.965 0 00-.002 5.93zM344.534 228.367a2.965 2.965 0 10.002-5.93 2.965 2.965 0 00-.002 5.93zM3.466 243.196a2.965 2.965 0 10.001-5.93 2.965 2.965 0 00-.001 5.93zM18.295 243.196a2.965 2.965 0 10.001-5.93 2.965 2.965 0 00-.001 5.93zM33.124 243.196a2.965 2.965 0 10.001-5.93 2.965 2.965 0 00-.001 5.93zM47.953 243.196a2.965 2.965 0 10.001-5.93 2.965 2.965 0 00-.001 5.93zM62.782 243.196a2.965 2.965 0 10.001-5.93 2.965 2.965 0 000 5.93zM77.611 243.196a2.965 2.965 0 10.002-5.93 2.965 2.965 0 00-.002 5.93zM92.44 243.196a2.965 2.965 0 10.002-5.93 2.965 2.965 0 00-.002 5.93zM107.269 243.196a2.965 2.965 0 10.002-5.93 2.965 2.965 0 00-.002 5.93zM122.098 243.196a2.965 2.965 0 10.002-5.93 2.965 2.965 0 00-.002 5.93zM136.927 243.196a2.965 2.965 0 10.002-5.93 2.965 2.965 0 00-.002 5.93zM151.756 243.196a2.965 2.965 0 10.002-5.93 2.965 2.965 0 00-.002 5.93zM166.585 243.196a2.965 2.965 0 10.002-5.93 2.965 2.965 0 00-.002 5.93zM181.414 243.196a2.965 2.965 0 10.002-5.93 2.965 2.965 0 00-.002 5.93zM196.244 243.196a2.965 2.965 0 100-5.932 2.965 2.965 0 000 5.932zM211.073 243.196a2.965 2.965 0 100-5.932 2.965 2.965 0 000 5.932zM225.902 243.196a2.965 2.965 0 10.002-5.93 2.965 2.965 0 00-.002 5.93zM240.731 243.196a2.965 2.965 0 10.002-5.93 2.965 2.965 0 00-.002 5.93zM255.56 243.196a2.965 2.965 0 10.002-5.93 2.965 2.965 0 00-.002 5.93zM270.389 243.196a2.965 2.965 0 10.002-5.93 2.965 2.965 0 00-.002 5.93zM285.218 243.196a2.965 2.965 0 10.002-5.93 2.965 2.965 0 00-.002 5.93zM300.047 243.196a2.965 2.965 0 10.002-5.93 2.965 2.965 0 00-.002 5.93zM314.876 243.196a2.965 2.965 0 10.002-5.93 2.965 2.965 0 00-.002 5.93zM329.705 243.196a2.965 2.965 0 10.002-5.93 2.965 2.965 0 00-.002 5.93zM344.534 243.196a2.965 2.965 0 10.002-5.93 2.965 2.965 0 00-.002 5.93zM3.466 258.026a2.966 2.966 0 100-5.932 2.966 2.966 0 000 5.932zM18.295 258.026a2.966 2.966 0 100-5.932 2.966 2.966 0 000 5.932zM33.124 258.026a2.966 2.966 0 100-5.932 2.966 2.966 0 000 5.932zM47.953 258.026a2.966 2.966 0 100-5.932 2.966 2.966 0 000 5.932zM62.782 258.026a2.966 2.966 0 100-5.932 2.966 2.966 0 000 5.932zM77.611 258.026a2.966 2.966 0 100-5.932 2.966 2.966 0 000 5.932zM92.44 258.026a2.966 2.966 0 100-5.932 2.966 2.966 0 000 5.932zM107.269 258.026a2.966 2.966 0 100-5.932 2.966 2.966 0 000 5.932zM122.098 258.026a2.966 2.966 0 100-5.932 2.966 2.966 0 000 5.932zM136.927 258.026a2.966 2.966 0 100-5.932 2.966 2.966 0 000 5.932zM151.756 258.026a2.966 2.966 0 100-5.932 2.966 2.966 0 000 5.932zM166.585 258.026a2.966 2.966 0 100-5.932 2.966 2.966 0 000 5.932zM181.414 258.026a2.966 2.966 0 100-5.932 2.966 2.966 0 000 5.932zM196.244 258.026a2.965 2.965 0 100-5.93 2.965 2.965 0 000 5.93zM211.073 258.026a2.965 2.965 0 100-5.93 2.965 2.965 0 000 5.93zM225.902 258.026a2.966 2.966 0 100-5.932 2.966 2.966 0 000 5.932zM240.731 258.026a2.966 2.966 0 100-5.932 2.966 2.966 0 000 5.932zM255.56 258.026a2.966 2.966 0 100-5.932 2.966 2.966 0 000 5.932zM270.389 258.026a2.966 2.966 0 100-5.932 2.966 2.966 0 000 5.932zM285.218 258.026a2.966 2.966 0 100-5.932 2.966 2.966 0 000 5.932zM300.047 258.026a2.966 2.966 0 100-5.932 2.966 2.966 0 000 5.932zM314.876 258.026a2.966 2.966 0 100-5.932 2.966 2.966 0 000 5.932zM329.705 258.026a2.966 2.966 0 100-5.932 2.966 2.966 0 000 5.932zM344.534 258.026a2.966 2.966 0 100-5.932 2.966 2.966 0 000 5.932zM3.466 272.855a2.966 2.966 0 100-5.932 2.966 2.966 0 000 5.932zM18.295 272.855a2.966 2.966 0 100-5.932 2.966 2.966 0 000 5.932zM33.124 272.855a2.966 2.966 0 100-5.932 2.966 2.966 0 000 5.932zM47.953 272.855a2.966 2.966 0 100-5.932 2.966 2.966 0 000 5.932zM62.782 272.855a2.966 2.966 0 100-5.932 2.966 2.966 0 000 5.932zM77.611 272.855a2.966 2.966 0 100-5.932 2.966 2.966 0 000 5.932zM92.44 272.855a2.966 2.966 0 100-5.932 2.966 2.966 0 000 5.932zM107.269 272.855a2.966 2.966 0 100-5.932 2.966 2.966 0 000 5.932zM122.098 272.855a2.966 2.966 0 100-5.932 2.966 2.966 0 000 5.932zM136.927 272.855a2.966 2.966 0 100-5.932 2.966 2.966 0 000 5.932zM151.756 272.855a2.966 2.966 0 100-5.932 2.966 2.966 0 000 5.932zM166.585 272.855a2.966 2.966 0 100-5.932 2.966 2.966 0 000 5.932zM181.414 272.855a2.966 2.966 0 100-5.932 2.966 2.966 0 000 5.932zM196.244 272.855a2.965 2.965 0 100-5.93 2.965 2.965 0 000 5.93zM211.073 272.855a2.965 2.965 0 100-5.93 2.965 2.965 0 000 5.93zM225.902 272.855a2.966 2.966 0 100-5.932 2.966 2.966 0 000 5.932zM240.731 272.855a2.966 2.966 0 100-5.932 2.966 2.966 0 000 5.932zM255.56 272.855a2.966 2.966 0 100-5.932 2.966 2.966 0 000 5.932zM270.389 272.855a2.966 2.966 0 100-5.932 2.966 2.966 0 000 5.932zM285.218 272.855a2.966 2.966 0 100-5.932 2.966 2.966 0 000 5.932zM300.047 272.855a2.966 2.966 0 100-5.932 2.966 2.966 0 000 5.932zM314.876 272.855a2.966 2.966 0 100-5.932 2.966 2.966 0 000 5.932zM329.705 272.855a2.966 2.966 0 100-5.932 2.966 2.966 0 000 5.932zM344.534 272.855a2.966 2.966 0 100-5.932 2.966 2.966 0 000 5.932zM3.466 287.684a2.966 2.966 0 100-5.932 2.966 2.966 0 000 5.932zM18.295 287.684a2.966 2.966 0 100-5.932 2.966 2.966 0 000 5.932zM33.124 287.684a2.966 2.966 0 100-5.932 2.966 2.966 0 000 5.932zM47.953 287.684a2.966 2.966 0 100-5.932 2.966 2.966 0 000 5.932zM62.782 287.684a2.966 2.966 0 100-5.932 2.966 2.966 0 000 5.932zM77.611 287.684a2.966 2.966 0 100-5.932 2.966 2.966 0 000 5.932zM92.44 287.684a2.966 2.966 0 100-5.932 2.966 2.966 0 000 5.932zM107.269 287.684a2.966 2.966 0 100-5.932 2.966 2.966 0 000 5.932zM122.098 287.684a2.966 2.966 0 100-5.932 2.966 2.966 0 000 5.932zM136.927 287.684a2.966 2.966 0 100-5.932 2.966 2.966 0 000 5.932zM151.756 287.684a2.966 2.966 0 100-5.932 2.966 2.966 0 000 5.932zM166.585 287.684a2.966 2.966 0 100-5.932 2.966 2.966 0 000 5.932zM181.414 287.684a2.966 2.966 0 100-5.932 2.966 2.966 0 000 5.932zM196.244 287.684a2.965 2.965 0 100-5.93 2.965 2.965 0 000 5.93zM211.073 287.684a2.965 2.965 0 100-5.93 2.965 2.965 0 000 5.93zM225.902 287.684a2.966 2.966 0 100-5.932 2.966 2.966 0 000 5.932zM240.731 287.684a2.966 2.966 0 100-5.932 2.966 2.966 0 000 5.932zM255.56 287.684a2.966 2.966 0 100-5.932 2.966 2.966 0 000 5.932zM270.389 287.684a2.966 2.966 0 100-5.932 2.966 2.966 0 000 5.932zM285.218 287.684a2.966 2.966 0 100-5.932 2.966 2.966 0 000 5.932zM300.047 287.684a2.966 2.966 0 100-5.932 2.966 2.966 0 000 5.932zM314.876 287.684a2.966 2.966 0 100-5.932 2.966 2.966 0 000 5.932zM329.705 287.684a2.966 2.966 0 100-5.932 2.966 2.966 0 000 5.932zM344.534 287.684a2.966 2.966 0 100-5.932 2.966 2.966 0 000 5.932zM3.466 302.513a2.966 2.966 0 100-5.932 2.966 2.966 0 000 5.932zM18.295 302.513a2.966 2.966 0 100-5.932 2.966 2.966 0 000 5.932zM33.124 302.513a2.966 2.966 0 100-5.932 2.966 2.966 0 000 5.932zM47.953 302.513a2.966 2.966 0 100-5.932 2.966 2.966 0 000 5.932zM62.782 302.513a2.966 2.966 0 100-5.932 2.966 2.966 0 000 5.932zM77.611 302.513a2.966 2.966 0 100-5.932 2.966 2.966 0 000 5.932zM92.44 302.513a2.966 2.966 0 100-5.932 2.966 2.966 0 000 5.932zM107.269 302.513a2.966 2.966 0 100-5.932 2.966 2.966 0 000 5.932zM122.098 302.513a2.966 2.966 0 100-5.932 2.966 2.966 0 000 5.932zM136.927 302.513a2.966 2.966 0 100-5.932 2.966 2.966 0 000 5.932zM151.756 302.513a2.966 2.966 0 100-5.932 2.966 2.966 0 000 5.932zM166.585 302.513a2.966 2.966 0 100-5.932 2.966 2.966 0 000 5.932zM181.414 302.513a2.966 2.966 0 100-5.932 2.966 2.966 0 000 5.932zM196.244 302.513a2.965 2.965 0 100-5.93 2.965 2.965 0 000 5.93zM211.073 302.513a2.965 2.965 0 100-5.93 2.965 2.965 0 000 5.93zM225.902 302.513a2.966 2.966 0 100-5.932 2.966 2.966 0 000 5.932zM240.731 302.513a2.966 2.966 0 100-5.932 2.966 2.966 0 000 5.932zM255.56 302.513a2.966 2.966 0 100-5.932 2.966 2.966 0 000 5.932zM270.389 302.513a2.966 2.966 0 100-5.932 2.966 2.966 0 000 5.932zM285.218 302.513a2.966 2.966 0 100-5.932 2.966 2.966 0 000 5.932zM300.047 302.513a2.966 2.966 0 100-5.932 2.966 2.966 0 000 5.932zM314.876 302.513a2.966 2.966 0 100-5.932 2.966 2.966 0 000 5.932zM329.705 302.513a2.966 2.966 0 100-5.932 2.966 2.966 0 000 5.932zM344.534 302.513a2.966 2.966 0 100-5.932 2.966 2.966 0 000 5.932zM3.466 317.342a2.966 2.966 0 100-5.932 2.966 2.966 0 000 5.932zM18.295 317.342a2.966 2.966 0 100-5.932 2.966 2.966 0 000 5.932zM33.124 317.342a2.966 2.966 0 100-5.932 2.966 2.966 0 000 5.932zM47.953 317.342a2.966 2.966 0 100-5.932 2.966 2.966 0 000 5.932zM62.782 317.342a2.966 2.966 0 100-5.932 2.966 2.966 0 000 5.932zM77.611 317.342a2.966 2.966 0 100-5.932 2.966 2.966 0 000 5.932zM92.44 317.342a2.966 2.966 0 100-5.932 2.966 2.966 0 000 5.932zM107.269 317.342a2.966 2.966 0 100-5.932 2.966 2.966 0 000 5.932zM122.098 317.342a2.966 2.966 0 100-5.932 2.966 2.966 0 000 5.932zM136.927 317.342a2.966 2.966 0 100-5.932 2.966 2.966 0 000 5.932zM151.756 317.342a2.966 2.966 0 100-5.932 2.966 2.966 0 000 5.932zM166.585 317.342a2.966 2.966 0 100-5.932 2.966 2.966 0 000 5.932zM181.414 317.342a2.966 2.966 0 100-5.932 2.966 2.966 0 000 5.932zM196.244 317.342a2.965 2.965 0 100-5.93 2.965 2.965 0 000 5.93zM211.073 317.342a2.965 2.965 0 100-5.93 2.965 2.965 0 000 5.93zM225.902 317.342a2.966 2.966 0 100-5.932 2.966 2.966 0 000 5.932zM240.731 317.342a2.966 2.966 0 100-5.932 2.966 2.966 0 000 5.932zM255.56 317.342a2.966 2.966 0 100-5.932 2.966 2.966 0 000 5.932zM270.389 317.342a2.966 2.966 0 100-5.932 2.966 2.966 0 000 5.932zM285.218 317.342a2.966 2.966 0 100-5.932 2.966 2.966 0 000 5.932zM300.047 317.342a2.966 2.966 0 100-5.932 2.966 2.966 0 000 5.932zM314.876 317.342a2.966 2.966 0 100-5.932 2.966 2.966 0 000 5.932zM329.705 317.342a2.966 2.966 0 100-5.932 2.966 2.966 0 000 5.932zM344.534 317.342a2.966 2.966 0 100-5.932 2.966 2.966 0 000 5.932zM3.466 332.171a2.966 2.966 0 100-5.932 2.966 2.966 0 000 5.932zM18.295 332.171a2.966 2.966 0 100-5.932 2.966 2.966 0 000 5.932zM33.124 332.171a2.966 2.966 0 100-5.932 2.966 2.966 0 000 5.932zM47.953 332.171a2.966 2.966 0 100-5.932 2.966 2.966 0 000 5.932zM62.782 332.171a2.966 2.966 0 100-5.932 2.966 2.966 0 000 5.932zM77.611 332.171a2.966 2.966 0 100-5.932 2.966 2.966 0 000 5.932zM92.44 332.171a2.966 2.966 0 100-5.932 2.966 2.966 0 000 5.932zM107.269 332.171a2.966 2.966 0 100-5.932 2.966 2.966 0 000 5.932zM122.098 332.171a2.966 2.966 0 100-5.932 2.966 2.966 0 000 5.932zM136.927 332.171a2.966 2.966 0 100-5.932 2.966 2.966 0 000 5.932zM151.756 332.171a2.966 2.966 0 100-5.932 2.966 2.966 0 000 5.932zM166.585 332.171a2.966 2.966 0 100-5.932 2.966 2.966 0 000 5.932zM181.414 332.171a2.966 2.966 0 100-5.932 2.966 2.966 0 000 5.932zM196.244 332.171a2.965 2.965 0 100-5.93 2.965 2.965 0 000 5.93zM211.073 332.171a2.965 2.965 0 100-5.93 2.965 2.965 0 000 5.93zM225.902 332.171a2.966 2.966 0 100-5.932 2.966 2.966 0 000 5.932zM240.731 332.171a2.966 2.966 0 100-5.932 2.966 2.966 0 000 5.932zM255.56 332.171a2.966 2.966 0 100-5.932 2.966 2.966 0 000 5.932zM270.389 332.171a2.966 2.966 0 100-5.932 2.966 2.966 0 000 5.932zM285.218 332.171a2.966 2.966 0 100-5.932 2.966 2.966 0 000 5.932zM300.047 332.171a2.966 2.966 0 100-5.932 2.966 2.966 0 000 5.932zM314.876 332.171a2.966 2.966 0 100-5.932 2.966 2.966 0 000 5.932zM329.705 332.171a2.966 2.966 0 100-5.932 2.966 2.966 0 000 5.932zM344.534 332.171a2.966 2.966 0 100-5.932 2.966 2.966 0 000 5.932zM3.466 347a2.966 2.966 0 100-5.932 2.966 2.966 0 000 5.932zM18.295 347a2.966 2.966 0 100-5.932 2.966 2.966 0 000 5.932zM33.124 347a2.966 2.966 0 100-5.932 2.966 2.966 0 000 5.932zM47.953 347a2.966 2.966 0 100-5.932 2.966 2.966 0 000 5.932zM62.782 347a2.966 2.966 0 100-5.932 2.966 2.966 0 000 5.932zM77.611 347a2.966 2.966 0 100-5.932 2.966 2.966 0 000 5.932zM92.44 347a2.966 2.966 0 100-5.932 2.966 2.966 0 000 5.932zM107.269 347a2.966 2.966 0 100-5.932 2.966 2.966 0 000 5.932zM122.098 347a2.966 2.966 0 100-5.932 2.966 2.966 0 000 5.932zM136.927 347a2.966 2.966 0 100-5.932 2.966 2.966 0 000 5.932zM151.756 347a2.966 2.966 0 100-5.932 2.966 2.966 0 000 5.932zM166.585 347a2.966 2.966 0 100-5.932 2.966 2.966 0 000 5.932zM181.414 347a2.966 2.966 0 100-5.932 2.966 2.966 0 000 5.932zM196.244 347a2.965 2.965 0 100-5.93 2.965 2.965 0 000 5.93zM211.073 347a2.965 2.965 0 100-5.93 2.965 2.965 0 000 5.93zM225.902 347a2.966 2.966 0 100-5.932 2.966 2.966 0 000 5.932zM240.731 347a2.966 2.966 0 100-5.932 2.966 2.966 0 000 5.932zM255.56 347a2.966 2.966 0 100-5.932 2.966 2.966 0 000 5.932zM270.389 347a2.966 2.966 0 100-5.932 2.966 2.966 0 000 5.932zM285.218 347a2.966 2.966 0 100-5.932 2.966 2.966 0 000 5.932zM300.047 347a2.966 2.966 0 100-5.932 2.966 2.966 0 000 5.932zM314.876 347a2.966 2.966 0 100-5.932 2.966 2.966 0 000 5.932zM329.705 347a2.966 2.966 0 100-5.932 2.966 2.966 0 000 5.932zM344.534 347a2.966 2.966 0 100-5.932 2.966 2.966 0 000 5.932zM3.466 361.829a2.966 2.966 0 100-5.932 2.966 2.966 0 000 5.932zM18.295 361.829a2.966 2.966 0 100-5.932 2.966 2.966 0 000 5.932zM33.124 361.829a2.966 2.966 0 100-5.932 2.966 2.966 0 000 5.932zM47.953 361.829a2.966 2.966 0 100-5.932 2.966 2.966 0 000 5.932zM62.782 361.829a2.966 2.966 0 100-5.932 2.966 2.966 0 000 5.932zM77.611 361.829a2.966 2.966 0 100-5.932 2.966 2.966 0 000 5.932zM92.44 361.829a2.966 2.966 0 100-5.932 2.966 2.966 0 000 5.932zM107.269 361.829a2.966 2.966 0 100-5.932 2.966 2.966 0 000 5.932zM122.098 361.829a2.966 2.966 0 100-5.932 2.966 2.966 0 000 5.932zM136.927 361.829a2.966 2.966 0 100-5.932 2.966 2.966 0 000 5.932zM151.756 361.829a2.966 2.966 0 100-5.932 2.966 2.966 0 000 5.932zM166.585 361.829a2.966 2.966 0 100-5.932 2.966 2.966 0 000 5.932zM181.414 361.829a2.966 2.966 0 100-5.932 2.966 2.966 0 000 5.932zM196.244 361.829a2.965 2.965 0 100-5.93 2.965 2.965 0 000 5.93zM211.073 361.829a2.965 2.965 0 100-5.93 2.965 2.965 0 000 5.93zM225.902 361.829a2.966 2.966 0 100-5.932 2.966 2.966 0 000 5.932zM240.731 361.829a2.966 2.966 0 100-5.932 2.966 2.966 0 000 5.932zM255.56 361.829a2.966 2.966 0 100-5.932 2.966 2.966 0 000 5.932zM270.389 361.829a2.966 2.966 0 100-5.932 2.966 2.966 0 000 5.932zM285.218 361.829a2.966 2.966 0 100-5.932 2.966 2.966 0 000 5.932zM300.047 361.829a2.966 2.966 0 100-5.932 2.966 2.966 0 000 5.932zM314.876 361.829a2.966 2.966 0 100-5.932 2.966 2.966 0 000 5.932zM329.705 361.829a2.966 2.966 0 100-5.932 2.966 2.966 0 000 5.932zM344.534 361.829a2.966 2.966 0 100-5.932 2.966 2.966 0 000 5.932z"
        fill="currentColor" />
</svg>