<svg viewBox="0 0 24 24" fill="none" xmlns="http://www.w3.org/2000/svg">
    <path fill-rule="evenodd" clip-rule="evenodd"
        d="M7.83.96h15.205v14.4h-14.4v.96h14.88a.48.48 0 00.48-.48V.48a.48.48 0 00-.48-.48H7.142c.282.276.516.6.688.96z"
        fill="#F5F50D" />
    <path fill-rule="evenodd" clip-rule="evenodd"
        d="M21.584 4.42l-1.44 6.72a.48.48 0 01-.808.24l-1.93-1.93-2.101 4.205a.48.48 0 01-.43.265h-4.32v-.96h4.024l2.267-4.535a.48.48 0 01.769-.124l1.776 1.776 1.255-5.858.938.202zM2.395 2.4a2.4 2.4 0 114.8 0c0 1.616-.993 2.88-2.4 2.88s-2.4-1.264-2.4-2.88zm2.4-1.44a1.44 1.44 0 00-1.44 1.44c0 1.264.726 1.92 1.44 1.92.715 0 1.44-.656 1.44-1.92A1.44 1.44 0 004.795.96zM5.275 13.92v9.6h-.96v-9.6h.96zM14.875 4.32h-4.32v-.96h4.32v.96z"
        fill="#F5F50D" />
    <path fill-rule="evenodd" clip-rule="evenodd"
        d="M2.157 5.63c.742-.189 1.667-.35 2.662-.35 1.767 0 2.827.5 3.335.832l.006.004c.189.128.35.278.49.44l.001.003 2.165 2.561h2.14c.792 0 1.44.647 1.44 1.44 0 .793-.648 1.44-1.44 1.44h-2.463c-.71 0-1.387-.318-1.842-.864l-.976-1.17V23.52a.48.48 0 01-.48.48h-4.8a.48.48 0 01-.48-.48v-8.64A1.918 1.918 0 010 12.96V8.42c0-1.31.88-2.465 2.157-2.79zm.718 8.702V8.64a.48.48 0 10-.96 0v5.28a.958.958 0 01-.955-.96V8.42c0-.88.59-1.645 1.433-1.859A9.927 9.927 0 014.82 6.24c1.57 0 2.448.44 2.806.673.107.073.204.162.294.267l.001.001 2.307 2.729a.48.48 0 00.367.17h2.361c.263 0 .48.217.48.48s-.217.48-.48.48h-2.462c-.424 0-.831-.19-1.105-.519L7.564 8.333a.48.48 0 00-.849.307v14.4h-3.84v-8.572a.484.484 0 000-.136z"
        fill="#F5F50D" />
</svg>