<svg viewBox="0 0 24 24" fill="none" xmlns="http://www.w3.org/2000/svg">
    <path d="M1.16 15.306l7.795-7.53v4.227h6.084v5.91H8.955v4.923l-7.795-7.53z" fill="#F5F5F5" />
    <path fill-rule="evenodd" clip-rule="evenodd"
        d="M9.018 7.625a.164.164 0 01.097.15v4.064h5.924c.088 0 .16.073.16.164v5.91c0 .091-.072.165-.16.165H9.115v4.758a.164.164 0 01-.097.15.157.157 0 01-.173-.03l-7.795-7.53a.166.166 0 010-.24l7.795-7.53a.157.157 0 01.173-.031zm-7.624 7.68l7.4 7.15v-4.541c0-.091.072-.165.16-.165h5.925v-5.582H8.955a.162.162 0 01-.16-.164V8.156l-7.401 7.15z"
        fill="#034DCA" />
    <path d="M22.84 8.694l-7.795 7.53v-4.227H8.961v-5.91h6.084V1.163l7.795 7.53z" fill="#F5F50D" />
    <path fill-rule="evenodd" clip-rule="evenodd"
        d="M14.982 1.013a.157.157 0 01.173.032l7.795 7.53a.166.166 0 010 .239l-7.795 7.53a.157.157 0 01-.173.031.164.164 0 01-.097-.15V12.16H8.961a.162.162 0 01-.16-.164v-5.91c0-.092.072-.165.16-.165h5.924V1.164c0-.065.038-.125.097-.15zm.223.532v4.541c0 .09-.072.164-.16.164H9.121v5.583h5.924c.088 0 .16.073.16.164v3.847l7.401-7.15-7.4-7.15z"
        fill="#034DCA" />
</svg>