<svg viewBox="0 0 24 24" fill="none" xmlns="http://www.w3.org/2000/svg">
    <path
        d="M19.173 8.713a7.512 7.512 0 10-10.85 6.678v2.504a.834.834 0 00.834.834h5.008a.835.835 0 00.835-.834V15.39a7.478 7.478 0 004.173-6.677z"
        fill="#F5F50D" />
    <path fill-rule="evenodd" clip-rule="evenodd"
        d="M11.513 1.001a7.661 7.661 0 017.81 7.713 7.63 7.63 0 01-4.174 6.769v2.412a.984.984 0 01-.984.984H9.157a.984.984 0 01-.984-.985v-2.411A7.662 7.662 0 0111.513 1zm3.762 1.246a7.363 7.363 0 10-6.886 13.01.15.15 0 01.083.133v2.505a.685.685 0 00.685.685h5.008a.685.685 0 00.685-.685V15.39a.15.15 0 01.084-.134 7.33 7.33 0 004.09-6.543 7.362 7.362 0 00-3.749-6.466zM8.173 22.85a.15.15 0 01.15-.149H15A.15.15 0 1115 23H8.323a.15.15 0 01-.15-.15z"
        fill="#BCA902" />
</svg>