<svg viewBox="0 0 33 24" fill="none" xmlns="http://www.w3.org/2000/svg">
    <path
        d="M26.958 6.718a3.904 3.904 0 00-3.794 3.023h-3.119v7.333h7.33v-2.599a3.891 3.891 0 00-.417-7.757zm-1.316 8.624h-3.864v-3.868h1.386a3.925 3.925 0 002.478 2.793v1.075zm1.732-2.617a2.14 2.14 0 01-1.732-.412 2.129 2.129 0 01-.659-.84 2.14 2.14 0 010-1.732 2.159 2.159 0 011.975-1.29 2.16 2.16 0 01.416 4.274zM11.92 5.323a3.904 3.904 0 00-3.794 3.024H5.007v7.333h7.329v-2.6a3.891 3.891 0 00-.416-7.757zm-1.317 8.624H6.74v-3.868h1.386a3.925 3.925 0 002.477 2.794v1.074zm1.733-2.616a2.14 2.14 0 01-1.733-.412 2.13 2.13 0 01-.658-.84 2.14 2.14 0 010-1.732 2.159 2.159 0 011.975-1.291 2.159 2.159 0 01.416 4.275z"
        fill="#F5F50D" />
    <path
        d="M30.978 0H19.552c-1.087 0-1.971.888-1.971 1.975V3.28L2.33 3.27A2.334 2.334 0 000 5.6v13.493a2.335 2.335 0 002.33 2.334h15.25v.598c0 1.087.885 1.975 1.972 1.975h11.426a1.98 1.98 0 001.975-1.975V1.975A1.98 1.98 0 0030.978 0zM17.58 19.695H2.33a.6.6 0 01-.598-.602v-.836H17.58v1.438zm0-3.17H1.733V5.6c0-.324.268-.597.597-.597h15.25v11.521zm5.605-14.792h4.158v2.096a.241.241 0 01-.238.242h-3.678a.242.242 0 01-.242-.242V1.733zm8.034 20.292a.242.242 0 01-.242.242H19.552a.238.238 0 01-.238-.242V1.975c0-.134.103-.242.238-.242h1.901v2.096c0 1.091.888 1.975 1.975 1.975h3.678c1.087 0 1.97-.884 1.97-1.975V1.733h1.902c.134 0 .242.108.242.242v20.05z"
        fill="#F5F50D" />
</svg>