<svg viewBox="0 0 80 80" fill="none" xmlns="http://www.w3.org/2000/svg">
    <path d="M0 40C0 17.909 17.909 0 40 0s40 17.909 40 40-17.909 40-40 40S0 62.091 0 40z" fill="#252525" />
    <path
        d="M39.96 48.613l-.28-.773a101.23 101.23 0 012.636-5.38 184.136 184.136 0 013.2-5.835A118.899 118.899 0 0148.89 31h7.945c-.82 1.898-1.64 3.89-2.461 5.977a357.019 357.019 0 00-2.355 6.152c-.75 1.992-1.43 3.82-2.04 5.484H39.96zm-15.679 0L24 47.84a120.35 120.35 0 012.602-5.38 184.136 184.136 0 013.199-5.835A142.027 142.027 0 0133.21 31h7.91c-.61 1.43-1.23 2.918-1.863 4.465a268.755 268.755 0 00-1.793 4.605 707.15 707.15 0 00-1.688 4.5c-.539 1.453-1.03 2.801-1.476 4.043H24.28z"
        fill="#E2E2E2" />
</svg>