<svg viewBox="0 0 24 24" fill="none" xmlns="http://www.w3.org/2000/svg">
    <path
        d="M21.214 1c-.592 0-1.418.026-2.29.107-1.744.162-3.758.456-5.007 1.704-1.049 1.049-3.217 3.832-5.22 6.446-.397.516-.38.506-.746.986l-1.465-.08a3.393 3.393 0 00-2.824 1.252l-1.783 2.182L1 14.717l1.384.265 2.797.56 3.276 3.276.56 2.797L9.31 23l1.091-.88 2.184-1.784a3.394 3.394 0 001.253-2.823l-.08-1.439c.496-.375.48-.366 1.012-.772 2.62-2.007 5.413-4.162 6.445-5.193 1.239-1.24 1.516-3.283 1.678-5.035.163-1.75.08-3.249.08-3.249l-.027-.773-.772-.026S21.807 1 21.214 1zm-.772 1.705c.34 0 .58.02.826.026.01.496.03 1.013-.08 2.185-.15 1.614-.643 3.412-1.198 3.968-.759.758-3.65 3.06-6.26 5.061a885.759 885.759 0 01-4.394 3.356L6.725 14.69c.35-.469 1.545-2.1 3.303-4.395 1.998-2.603 4.305-5.503 5.087-6.285.583-.583 2.361-1.075 3.969-1.225.451-.047.904-.073 1.358-.08zm-3.889 3.01c-.952 0-1.705.778-1.705 1.73 0 .953.753 1.732 1.705 1.732a1.736 1.736 0 001.732-1.73 1.736 1.736 0 00-1.732-1.733zM6.38 11.866l.32.026c-.514.68-1.352 1.768-1.466 1.918l-1.144-.24.878-1.065a1.706 1.706 0 011.412-.639zm-1.944 4.422c-.73.729-1.146 1.738-1.439 2.582-.292.847-.426 1.546-.426 1.546l-.265 1.252 1.252-.24s.678-.117 1.517-.4c.84-.282 1.849-.702 2.61-1.465l-1.198-1.198c-.379.38-1.132.712-1.81.959.26-.71.638-1.515.958-1.838l-1.2-1.198zm7.67 1.012l.027.32a1.675 1.675 0 01-.613 1.41l-1.091.88-.24-1.145c.15-.111 1.238-.956 1.918-1.465z"
        fill="currentColor" />
</svg>