<svg viewBox="0 0 40 40" fill="none" xmlns="http://www.w3.org/2000/svg">
    <path
        d="M32.249 12.368c-.902.401-1.87.672-2.887.795a5.06 5.06 0 002.21-2.794 10.038 10.038 0 01-3.191 1.226A5.009 5.009 0 0024.71 10c-2.775 0-5.025 2.26-5.025 5.049 0 .396.044.781.13 1.15-4.177-.21-7.88-2.22-10.36-5.275a5.044 5.044 0 00-.68 2.539c0 1.751.888 3.297 2.236 4.202a4.987 4.987 0 01-2.276-.632v.064a5.046 5.046 0 004.03 4.95 5.01 5.01 0 01-2.269.087 5.034 5.034 0 004.695 3.507 10.056 10.056 0 01-6.242 2.161c-.406 0-.806-.024-1.199-.07A14.179 14.179 0 0015.456 30c9.244 0 14.3-7.694 14.3-14.366 0-.219-.005-.436-.015-.653.984-.714 1.833-1.6 2.508-2.613"
        fill='currentColor' />
</svg>