<svg viewBox="0 0 24 24" fill="none" xmlns="http://www.w3.org/2000/svg">
    <path
        d="M12.467 12a5.408 5.408 0 100-10.817 5.408 5.408 0 000 10.817zM22.752 22.817a10.8 10.8 0 00-20.569 0h20.569z"
        fill="#F5F50D" />
    <path fill-rule="evenodd" clip-rule="evenodd"
        d="M6.876 6.592a5.592 5.592 0 1111.183 0 5.592 5.592 0 01-11.183 0zm5.591-5.226a5.225 5.225 0 100 10.45 5.225 5.225 0 000-10.45zM5.995 17.242a10.983 10.983 0 0116.931 5.519.184.184 0 01-.174.239H2.183a.183.183 0 01-.174-.24 10.983 10.983 0 013.986-5.518zm6.472-1.744a10.616 10.616 0 00-10.03 7.136h20.06a10.616 10.616 0 00-10.03-7.136z"
        fill="#BCA902" />
</svg>